<svg width="11" height="28" fill="#4A4D4F" viewBox="0 0 11 28" xmlns="http://www.w3.org/2000/svg">
<path d="M10.1567 6.31313C10.0486 6.21387 9.92017 6.13512 9.77878 6.08139C9.6374 6.02766 9.48583 6 9.33276 6C9.17968 6 9.02812 6.02766 8.88673 6.08139C8.74535 6.13512 8.61693 6.21387 8.50883 6.31313L0.772264 13.3988C0.685957 13.4776 0.617485 13.5713 0.570766 13.6745C0.524048 13.7776 0.5 13.8882 0.5 13.9999C0.5 14.1116 0.524048 14.2221 0.570766 14.3253C0.617485 14.4284 0.685957 14.5221 0.772264 14.601L8.50883 21.6866C8.96501 22.1045 9.7005 22.1045 10.1567 21.6866C10.6129 21.2688 10.6129 20.5952 10.1567 20.1774L3.41629 13.9956L10.166 7.81381C10.6129 7.40454 10.6129 6.72241 10.1567 6.31313Z" stroke-width="0.2"/>
</svg>
