<svg width="20" height="20" viewBox="0 0 20 20" fill="none" xmlns="http://www.w3.org/2000/svg">
<path d="M16.1386 1.54022H15.3926V0.785358C15.3926 0.354066 15.043 0.00445557 14.6117 0.00445557C14.1804 0.00445557 13.8308 0.354066 13.8308 0.785358V1.54022H6.16913V0.785358C6.16913 0.354066 5.81952 0.00445557 5.38823 0.00445557C4.95693 0.00445557 4.60732 0.354066 4.60732 0.785358V1.54022H3.86137C1.7322 1.54022 0 3.27241 0 5.40154V16.1342C0 18.2634 1.7322 19.9956 3.86137 19.9956H16.1387C18.2678 19.9956 20 18.2634 20 16.1342V5.40154C20 3.27241 18.2678 1.54022 16.1386 1.54022ZM3.86137 3.10202H4.60732V4.62478C4.60732 5.05607 4.95693 5.40568 5.38823 5.40568C5.81952 5.40568 6.16913 5.05607 6.16913 4.62478V3.10202H13.8309V4.62478C13.8309 5.05607 14.1805 5.40568 14.6118 5.40568C15.0431 5.40568 15.3927 5.05607 15.3927 4.62478V3.10202H16.1387C17.4066 3.10202 18.4382 4.13359 18.4382 5.40154V6.14754H1.5618V5.40154C1.5618 4.13359 2.59338 3.10202 3.86137 3.10202ZM16.1386 18.4337H3.86137C2.59338 18.4337 1.5618 17.4022 1.5618 16.1342V7.70934H18.4382V16.1342C18.4382 17.4022 17.4066 18.4337 16.1386 18.4337ZM6.93703 10.7809C6.93703 11.2122 6.58742 11.5618 6.15613 11.5618H4.62036C4.18907 11.5618 3.83946 11.2122 3.83946 10.7809C3.83946 10.3496 4.18907 10 4.62036 10H6.15613C6.58738 10 6.93703 10.3496 6.93703 10.7809ZM16.1606 10.7809C16.1606 11.2122 15.811 11.5618 15.3797 11.5618H13.8439C13.4126 11.5618 13.063 11.2122 13.063 10.7809C13.063 10.3496 13.4126 10 13.8439 10H15.3797C15.8109 10 16.1606 10.3496 16.1606 10.7809ZM11.5444 10.7809C11.5444 11.2122 11.1947 11.5618 10.7634 11.5618H9.22769C8.79639 11.5618 8.44678 11.2122 8.44678 10.7809C8.44678 10.3496 8.79639 10 9.22769 10H10.7634C11.1947 10 11.5444 10.3496 11.5444 10.7809ZM6.93703 15.3882C6.93703 15.8195 6.58742 16.1691 6.15613 16.1691H4.62036C4.18907 16.1691 3.83946 15.8195 3.83946 15.3882C3.83946 14.9569 4.18907 14.6073 4.62036 14.6073H6.15613C6.58738 14.6073 6.93703 14.9569 6.93703 15.3882ZM16.1606 15.3882C16.1606 15.8195 15.811 16.1691 15.3797 16.1691H13.8439C13.4126 16.1691 13.063 15.8195 13.063 15.3882C13.063 14.9569 13.4126 14.6073 13.8439 14.6073H15.3797C15.8109 14.6073 16.1606 14.9569 16.1606 15.3882ZM11.5444 15.3882C11.5444 15.8195 11.1947 16.1691 10.7634 16.1691H9.22769C8.79639 16.1691 8.44678 15.8195 8.44678 15.3882C8.44678 14.9569 8.79639 14.6073 9.22769 14.6073H10.7634C11.1947 14.6073 11.5444 14.9569 11.5444 15.3882Z" fill="#7C8183"/>
</svg>
