<svg width="18" height="18" viewBox="0 0 18 18" fill="none" xmlns="http://www.w3.org/2000/svg">
<path d="M8.9834 17.6052C7.85144 17.6073 6.73027 17.3856 5.68426 16.953C4.63824 16.5205 3.68805 15.8854 2.88822 15.0845C-0.473157 11.7231 -0.473157 6.2541 2.88822 2.89273C3.68684 2.08963 4.63683 1.45289 5.6832 1.01939C6.72953 0.585882 7.85148 0.364214 8.9841 0.367218C11.2868 0.367218 13.4517 1.26377 15.0793 2.89273C16.7075 4.52101 17.6048 6.68582 17.6048 8.98859C17.6048 11.2914 16.7082 13.4562 15.0793 15.0845C14.2793 15.8854 13.3289 16.5205 12.2829 16.953C11.2367 17.3856 10.1154 17.6072 8.9834 17.6052ZM8.9841 1.74653C8.03266 1.74383 7.09016 1.92994 6.21117 2.29408C5.33219 2.65823 4.53418 3.19316 3.8634 3.86789C2.49581 5.23551 1.7427 7.0541 1.7427 8.98859C1.7427 10.9231 2.49581 12.741 3.8634 14.1093C6.68683 16.9327 11.2813 16.9334 14.1041 14.1093C15.4717 12.7417 16.2255 10.9231 16.2255 8.98859C16.2255 7.0541 15.4723 5.23617 14.1041 3.86789C13.4333 3.19336 12.6354 2.65856 11.7566 2.29443C10.8777 1.9303 9.93539 1.74407 8.9841 1.74653Z" fill="black"/>
<path d="M6.05768 12.6035C5.92115 12.6038 5.7876 12.5635 5.674 12.4878C5.56041 12.4121 5.47186 12.3043 5.41963 12.1781C5.36736 12.052 5.35381 11.9132 5.38057 11.7793C5.40736 11.6454 5.47334 11.5226 5.5701 11.4262L11.4218 5.57451C11.4858 5.51049 11.5619 5.45971 11.6455 5.42502C11.7292 5.39037 11.8188 5.37256 11.9094 5.37256C11.9999 5.37256 12.0896 5.39037 12.1733 5.42502C12.2569 5.45971 12.333 5.51049 12.397 5.57451C12.461 5.63854 12.5118 5.71455 12.5465 5.79822C12.5811 5.88189 12.599 5.97154 12.599 6.06209C12.599 6.15264 12.5811 6.24232 12.5465 6.326C12.5118 6.40963 12.461 6.48564 12.397 6.54967L6.54525 12.4014C6.48139 12.4657 6.40541 12.5166 6.3217 12.5513C6.23803 12.586 6.14826 12.6037 6.05768 12.6035Z" fill="black"/>
<path d="M11.9097 12.6035C11.8191 12.6036 11.7294 12.5858 11.6458 12.5511C11.562 12.5164 11.4861 12.4655 11.4221 12.4014L5.57036 6.54967C5.50634 6.48564 5.45556 6.40963 5.42091 6.326C5.38626 6.24232 5.36841 6.15264 5.36841 6.06209C5.36841 5.97154 5.38626 5.88189 5.42091 5.79822C5.45556 5.71455 5.50634 5.63854 5.57036 5.57451C5.63442 5.51049 5.71044 5.45971 5.79407 5.42502C5.87774 5.39037 5.96743 5.37256 6.05798 5.37256C6.14853 5.37256 6.23817 5.39037 6.32185 5.42502C6.40552 5.45971 6.48153 5.51049 6.54556 5.57451L12.3973 11.4262C12.494 11.5226 12.56 11.6454 12.5868 11.7793C12.6136 11.9132 12.6 12.052 12.5477 12.1781C12.4955 12.3043 12.407 12.4121 12.2934 12.4878C12.1797 12.5635 12.0462 12.6038 11.9097 12.6035Z" fill="black"/>
</svg>
