<svg width="20" height="21" viewBox="0 0 20 21" fill="none" xmlns="http://www.w3.org/2000/svg">
<circle cx="10" cy="10.5" r="10" fill="#83FF80"/>
<g clip-path="url(#clip0_3213_134271)">
<path d="M11.2589 9.2403C11.1235 9.10412 10.9734 8.9834 10.8114 8.88036C10.3822 8.60552 9.88318 8.45948 9.37352 8.45948C8.66613 8.45816 7.98747 8.73923 7.48814 9.2403L5.06572 11.6646C4.56724 12.1641 4.28707 12.8407 4.28662 13.5464C4.28568 15.0189 5.47859 16.2133 6.9511 16.2143C7.6574 16.2167 8.33543 15.937 8.83458 15.4373L10.8342 13.4376C10.8706 13.4016 10.8908 13.3525 10.8905 13.3013C10.8899 13.1961 10.8042 13.1114 10.699 13.112H10.6228C10.205 13.1134 9.79099 13.0332 9.40401 12.8758C9.3327 12.8465 9.25075 12.863 9.19643 12.9177L7.75859 14.3575C7.3121 14.8039 6.58822 14.8039 6.14173 14.3575C5.69525 13.911 5.69525 13.1871 6.14173 12.7406L8.57369 10.3106C9.01981 9.86501 9.74252 9.86501 10.1886 10.3106C10.4893 10.5935 10.9583 10.5935 11.2589 10.3106C11.3883 10.1811 11.4667 10.0094 11.4798 9.82684C11.4937 9.60869 11.4133 9.39505 11.2589 9.2403Z" fill="black"/>
<path d="M14.9325 5.56659C13.8912 4.52533 12.203 4.52533 11.1617 5.56659L9.16398 7.56242C9.10913 7.61754 9.0933 7.70045 9.12399 7.77191C9.15432 7.84357 9.2252 7.88957 9.303 7.88807H9.37345C9.79074 7.88731 10.2041 7.96817 10.5904 8.12613C10.6617 8.15548 10.7436 8.13892 10.798 8.08424L12.232 6.65211C12.6785 6.20563 13.4023 6.20563 13.8488 6.65211C14.2953 7.09859 14.2953 7.82248 13.8488 8.26896L12.0625 10.0534L12.0472 10.0705L11.4226 10.6914C10.9765 11.137 10.2538 11.137 9.80764 10.6914C9.50698 10.4084 9.038 10.4084 8.73736 10.6914C8.60718 10.8218 8.52869 10.995 8.51644 11.1789C8.50252 11.3971 8.58297 11.6107 8.73736 11.7655C8.95779 11.9868 9.21569 12.1674 9.49912 12.2987C9.53912 12.3177 9.57911 12.333 9.6191 12.3501C9.65909 12.3673 9.70098 12.3806 9.74098 12.3958C9.78097 12.4111 9.82286 12.4244 9.86285 12.4358L9.97522 12.4663C10.0514 12.4853 10.1276 12.5006 10.2056 12.5139C10.2997 12.5279 10.3944 12.5368 10.4894 12.5406H10.6227H10.6341L10.7484 12.5272C10.7903 12.5253 10.8341 12.5158 10.8836 12.5158H10.9484L11.0798 12.4968L11.1407 12.4854L11.2512 12.4625H11.2721C11.7399 12.345 12.1671 12.1028 12.5081 11.7617L14.9324 9.33734C15.9737 8.29608 15.9737 6.60786 14.9325 5.56659Z" fill="black"/>
</g>
<defs>
<clipPath id="clip0_3213_134271">
<rect width="11.4286" height="11.4286" fill="white" transform="translate(4.28577 4.78564)"/>
</clipPath>
</defs>
</svg>
