<svg width="21" height="20" viewBox="0 0 21 20" fill="none" xmlns="http://www.w3.org/2000/svg">
<path d="M10.5 1.6665C5.89163 1.6665 2.16663 5.3915 2.16663 9.99984C2.16663 14.6082 5.89163 18.3332 10.5 18.3332C15.1083 18.3332 18.8333 14.6082 18.8333 9.99984C18.8333 5.3915 15.1083 1.6665 10.5 1.6665ZM14.0833 13.5832C14.0062 13.6604 13.9146 13.7217 13.8138 13.7635C13.713 13.8053 13.6049 13.8269 13.4958 13.8269C13.3867 13.8269 13.2786 13.8053 13.1778 13.7635C13.077 13.7217 12.9854 13.6604 12.9083 13.5832L10.5 11.1748L8.09163 13.5832C7.93581 13.739 7.72448 13.8265 7.50413 13.8265C7.28377 13.8265 7.07244 13.739 6.91663 13.5832C6.76081 13.4274 6.67328 13.216 6.67328 12.9957C6.67328 12.8866 6.69477 12.7785 6.73652 12.6777C6.77827 12.5769 6.83947 12.4853 6.91663 12.4082L9.32496 9.99984L6.91663 7.5915C6.76081 7.43569 6.67328 7.22436 6.67328 7.004C6.67328 6.78365 6.76081 6.57232 6.91663 6.4165C7.07244 6.26069 7.28377 6.17315 7.50413 6.17315C7.72448 6.17315 7.93581 6.26069 8.09163 6.4165L10.5 8.82484L12.9083 6.4165C12.9854 6.33935 13.077 6.27815 13.1778 6.2364C13.2786 6.19464 13.3867 6.17315 13.4958 6.17315C13.6049 6.17315 13.7129 6.19464 13.8137 6.2364C13.9145 6.27815 14.0061 6.33935 14.0833 6.4165C14.1604 6.49366 14.2216 6.58525 14.2634 6.68605C14.3052 6.78685 14.3266 6.89489 14.3266 7.004C14.3266 7.11311 14.3052 7.22115 14.2634 7.32196C14.2216 7.42276 14.1604 7.51435 14.0833 7.5915L11.675 9.99984L14.0833 12.4082C14.4 12.7248 14.4 13.2582 14.0833 13.5832Z" fill="#EB5757"/>
</svg>
