<svg width="24" height="24" viewBox="0 0 24 24" fill="none" xmlns="http://www.w3.org/2000/svg">
<g clip-path="url(#clip0_4019_179353)">
<path d="M12 24C8.79469 24 5.78123 22.7518 3.51469 20.4853C1.24823 18.2188 0 15.2053 0 12C0 8.79469 1.24823 5.78123 3.51469 3.51469C5.78123 1.24823 8.79469 0 12 0C15.2053 0 18.2188 1.24823 20.4853 3.51469C22.7518 5.78123 24 8.79469 24 12C24 15.2053 22.7518 18.2188 20.4853 20.4853C18.2188 22.7518 15.2053 24 12 24Z" fill="#00C1FD"/>
<path d="M20.4853 3.51469C18.2188 1.24823 15.2053 0 12 0V24C15.2053 24 18.2188 22.7518 20.4853 20.4853C22.7518 18.2188 24 15.2053 24 12C24 8.79469 22.7518 5.78123 20.4853 3.51469Z" fill="#08A8EE"/>
<path d="M14.1094 17.3906V10.3594H8.95312V11.7656H9.89062V17.3906H8.90625V18.7969H15V17.3906H14.1094Z" fill="#E4F7FF"/>
<path d="M12 8.95312C13.1631 8.95312 14.1094 8.00686 14.1094 6.84375C14.1094 5.68064 13.1631 4.73438 12 4.73438C10.8369 4.73438 9.89062 5.68064 9.89062 6.84375C9.89062 8.00686 10.8369 8.95312 12 8.95312Z" fill="#E4F7FF"/>
<path d="M12 8.95312C13.1631 8.95312 14.1094 8.00686 14.1094 6.84375C14.1094 5.68064 13.1631 4.73438 12 4.73438V8.95312Z" fill="#CBEDFD"/>
<path d="M14.1094 17.3906V10.3594H12V18.7969H15V17.3906H14.1094Z" fill="#CBEDFD"/>
</g>
<defs>
<clipPath id="clip0_4019_179353">
<rect width="24" height="24" fill="white"/>
</clipPath>
</defs>
</svg>
