<svg width="20" height="20" viewBox="0 0 20 20" fill="none" xmlns="http://www.w3.org/2000/svg">
<path d="M7.11199 15.8582C6.93882 15.862 6.76876 15.8118 6.62547 15.7145C6.48217 15.6172 6.37275 15.4776 6.31242 15.3152C6.2521 15.1529 6.24386 14.9758 6.28885 14.8085C6.33385 14.6412 6.42984 14.4922 6.56348 14.382L11.6628 10.0135L6.56348 5.64658C6.47103 5.57864 6.39361 5.49237 6.33606 5.39312C6.27851 5.29386 6.24208 5.18376 6.22903 5.06978C6.21599 4.95579 6.22663 4.84036 6.26027 4.73067C6.29392 4.62098 6.34985 4.51939 6.42456 4.43232C6.49927 4.34525 6.59116 4.27462 6.69447 4.2247C6.79777 4.17479 6.91027 4.14675 7.02492 4.14233C7.13956 4.13791 7.25389 4.15714 7.36073 4.19894C7.46758 4.24075 7.56464 4.30417 7.64584 4.38522L13.4841 9.3804C13.5757 9.45864 13.6494 9.55575 13.6998 9.66519C13.7503 9.77464 13.7765 9.89377 13.7765 10.0143C13.7765 10.1348 13.7503 10.254 13.6998 10.3634C13.6494 10.4728 13.5757 10.5701 13.4841 10.6483L7.64584 15.6483C7.49836 15.7793 7.30919 15.8537 7.11199 15.8584V15.8582Z" fill="black"/>
</svg>
